<?xml version="1.0" encoding="utf-8"?>
<!-- Generator: Adobe Illustrator 24.1.2, SVG Export Plug-In . SVG Version: 6.00 Build 0)  -->
<svg version="1.1" id="Layer_1" xmlns="http://www.w3.org/2000/svg" xmlns:xlink="http://www.w3.org/1999/xlink" x="0px" y="0px"
	 viewBox="0 0 21 25" style="enable-background:new 0 0 21 25;" xml:space="preserve">
<style type="text/css">
	.st0{fill:#003D51;}
</style>
<path class="st0" d="M12.8,24.8c-3.3,0-6.7,0-10,0c-0.9,0-1.5-0.4-1.8-0.7c-0.3-0.3-0.7-1-0.7-1.9c0-2,0.1-4,0.1-6
	C0.5,12.7,0.6,9.3,0.7,6c0-1.1,0.1-2.1,0.1-3.2c0.1-1.6,1.1-2.5,2.7-2.5c0,0,0,0,0,0l8.3,0c1.6,0,2.6,1,2.7,2.6c0,0.6,0,1.6,0,2.6
	l3.2,0c1.6,0,2.6,1,2.6,2.6c0,1,0.1,1.7,0.1,2.4c0,0.7,0.1,1.4,0.1,2.4l0.3,9c0,0.6,0,1.4-0.7,2.1c-0.7,0.7-1.7,0.7-2,0.7
	C16.3,24.7,14.5,24.8,12.8,24.8z M3.8,21.2c4.5,0,9,0,13.5,0L17,13c0-1-0.1-1.7-0.1-2.4c0-0.5,0-1-0.1-1.6h-4c-1,0-1.8-0.8-1.8-1.8
	c0-0.4,0-1,0-1.6c0-0.6,0-1.3,0-1.8l-6.7,0c0,0.8,0,1.5-0.1,2.3C4.1,9.4,4,12.8,3.9,16.2C3.8,17.9,3.8,19.6,3.8,21.2z M14.5,7.1
	C14.5,7.1,14.5,7.2,14.5,7.1C14.5,7.2,14.5,7.1,14.5,7.1z"/>
</svg>
