<?xml version="1.0" encoding="utf-8"?>
<!-- Generator: Adobe Illustrator 24.1.2, SVG Export Plug-In . SVG Version: 6.00 Build 0)  -->
<svg version="1.1" id="Layer_1" xmlns="http://www.w3.org/2000/svg" xmlns:xlink="http://www.w3.org/1999/xlink" x="0px" y="0px"
	 viewBox="0 0 130.4 25.9" style="enable-background:new 0 0 130.4 25.9;" xml:space="preserve">
<style type="text/css">
	.st0{fill:#FFFFFF;}
</style>
<path class="st0" d="M104.1,6.6c0.3-1.1,0.6-1.9,0.9-3c0.2-0.5,0.3-1.1,0.6-1.6c0.2-0.3,0.5-0.5,0.8-0.6c1.1-0.3,2.3-0.3,3.4,0
	c0.3,0.1,0.6,0.4,0.7,0.7c0.2,0.8,0.4,1.6,0.5,2.4c0.1,1.2,0.3,2,0.3,3.2c0.1,4.1,0.2,8.1,0.2,12.2c0,1.5-0.1,3.1-0.2,4.6
	c-0.1,0.8-0.4,1.2-1.2,1.1c-0.9,0-1.8-0.2-2.7-0.5c-0.5-0.1-0.7-0.5-0.7-1.1c0.1-2.9,0.3-5.8,0.3-8.6c0-1.8,0-3.6-0.1-5.4
	c-0.1,0-0.1-0.1-0.2-0.1c-0.1,0.1-0.3,0.3-0.4,0.4c-0.3,1-0.7,2.1-1,3.2c-0.2,0.5-0.3,1-0.5,1.5c-0.4,0.9-1.5,0.9-1.9,0.1
	c-0.3-0.6-0.5-1.3-0.7-2c-0.3-0.9-0.5-1.8-0.8-2.6c-0.1-0.2-0.3-0.4-0.4-0.6c-0.1,0-0.1,0-0.2,0c-0.1,0.4-0.2,0.9-0.2,1.3
	c0.1,3.3,0.2,6.6,0.3,10c0,1.1,0.2,2.1,0.2,3.2c0,0.7-0.2,1-0.9,1.1c-1.1,0-2.2,0-3.3-0.1c-0.6,0-0.9-0.5-1-1.2
	c-0.1-3.8-0.2-7.5-0.3-11.3c0-0.9,0-1.7,0-2.5C96,8.3,96,5.7,96.1,3.6c0.1-0.7,0.1-1.3,0.3-2C96.5,1.3,96.8,1,97,1
	c1.3-0.5,2.7-0.4,4-0.1c0.5,0.1,0.8,0.4,1,0.9c0.5,1.3,1.1,3.1,1.6,4.5c0.1,0.2,0.2,0.3,0.3,0.5C104,6.6,104,6.6,104.1,6.6z"/>
<path class="st0" d="M46,16.8c0.2-0.2,0.4-0.5,0.4-0.7c0.4-1.3,0.7-2.6,1-3.9c0.2-0.7,0.5-1.1,1.1-1.2c0.6,0,1,0.3,1.3,1
	c0.4,1.2,0.8,2.4,1.2,3.6c0.1,0.3,0.3,0.6,0.5,1c0.1,0,0.1,0,0.2,0c0-0.2,0.1-0.4,0.1-0.5c-0.1-3.1-0.2-6.1-0.3-9.2
	c-0.1-1.5-0.4-3.7-0.6-5.2c-0.1-0.6,0.2-0.9,0.7-1.1C52.6,0.1,53.6,0,54.6,0c0.5,0,0.7,0.3,0.8,0.7c0.2,1.5,0.5,3.8,0.6,5.3
	c0.2,3,0.4,6,0.4,8.9c0,2.5-0.1,5-0.2,7.5c0,0.8-0.2,1.6-0.4,2.4c-0.1,0.3-0.5,0.6-0.8,0.7c-0.8,0.1-1.5,0.2-2.3,0.2
	c-1.6,0-1.6-0.1-2.2-1.7c-0.4-1.1-0.8-2.3-1.2-3.5c0-0.1-0.2-0.2-0.3-0.4c-0.1,0.1-0.2,0.2-0.3,0.3c-0.4,1.2-0.8,2.4-1.2,3.7
	c-0.2,0.8-0.6,1.4-1.5,1.5c-1.2,0.2-2.5,0.4-3.7-0.1c-0.3-0.1-0.5-0.4-0.7-0.6c-0.2-0.4-0.2-0.8-0.3-1.2c-0.3-2.9-0.8-5.7-0.8-8.6
	c0-4.1-0.1-8.2-0.2-12.3c0-0.9,0.2-1.2,1.1-1.3c1.1-0.1,2.2-0.2,3.3-0.2c0.5,0,0.7,0.4,0.7,0.9c0,1.9,0,3.8,0,5.7c0,2.3,0,4.6,0,7
	c0,0.6,0.2,1.3,0.2,1.9C45.8,16.7,45.9,16.8,46,16.8z"/>
<path class="st0" d="M25.8,22.9c0.2-2.1,0.3-4.3,0.5-6.4c0.1-1.1,0.1-2.2,0.3-3.2c0.2-1.3,0.4-2.6,0.6-3.9c0.2-1.1,0.3-2.1,0.5-3.1
	C28,5,28.4,3.7,28.7,2.4c0.2-0.7,0.7-1,1.3-1c1.5-0.1,3-0.1,4.5-0.1c1,0,1.7,0.6,1.9,1.5c0.3,1.2,0.5,2.5,0.8,3.8
	c0.2,1.1,0.5,2.3,0.7,3.4c0.1,0.6,0.2,1.2,0.3,1.9c0.1,1.1,0.2,2.3,0.3,3.4c0.2,2.3,0.5,4.7,0.6,7c0.1,0.8,0,1.6-0.1,2.3
	c0,0.2-0.3,0.5-0.5,0.6c-1.1,0.2-2.2,0.4-3.3,0.1c-0.5-0.1-0.7-0.4-0.7-0.9c0-0.9,0-1.7,0-2.6c0-0.7-0.2-0.9-0.9-0.9
	c-0.3,0-0.7,0-1,0c-0.8,0.1-1,0.3-1.1,1.1c-0.1,0.9-0.2,1.7-0.2,2.6c0,0.5-0.2,0.7-0.6,0.7c-0.5,0-1,0.1-1.6,0
	c-0.7,0-1.5-0.1-2.2-0.2c-0.6-0.1-0.9-0.4-1-1c0,0,0-0.1,0-0.1C25.8,23.7,25.8,23.3,25.8,22.9C25.8,22.9,25.8,22.9,25.8,22.9z
	 M33.9,15.7c-0.1-0.6-0.2-1.3-0.3-1.9c-0.3-2.1-0.5-4.1-0.8-6.2c0-0.1-0.1-0.2-0.2-0.4c-0.1,0.1-0.3,0.2-0.3,0.3
	c-0.3,1.6-0.5,3.2-0.7,4.8c-0.2,1.3-0.2,2.7-0.4,4c-0.1,1,0,1.1,1.1,1C33.8,17.2,33.9,17.2,33.9,15.7z"/>
<path class="st0" d="M94.3,13.3c-0.1,1.6-0.2,3.2-0.4,4.8c-0.3,2-0.9,3.9-2.2,5.5c-2.3,2.8-6.3,2.6-8.3-0.5
	c-0.9-1.4-1.4-2.9-1.7-4.5c-0.5-2.5-0.6-5.1-0.4-7.6c0.2-2.5,0.7-5,2.2-7.2c0.9-1.3,2.1-2.2,3.7-2.5c1.3-0.2,2.4,0.2,3.4,1
	c1.3,1,2.1,2.3,2.6,3.8C94.1,8.4,94.3,10.9,94.3,13.3z M89.6,14c-0.1-1.8-0.1-3.2-0.2-4.6c-0.1-0.9-0.3-1.7-0.5-2.6
	c-0.1-0.5-0.5-1-1-1c-0.3,0-0.7,0.4-1,0.7c-0.1,0.1-0.2,0.3-0.2,0.4c-0.2,1.1-0.4,2.3-0.5,3.4c-0.1,1.4,0,2.7-0.1,4.1
	c0,1.8,0.1,3.6,0.5,5.4c0.1,0.5,0.3,1.1,1,1.2c0.6,0.1,0.9-0.2,1.2-0.7c0.2-0.3,0.3-0.7,0.3-1C89.3,17.4,89.5,15.5,89.6,14z"/>
<path class="st0" d="M68.1,19.5c0.1-0.8,0.2-1.5,0.4-2.3c0.1-0.2,0.3-0.5,0.6-0.5c1.2-0.4,2.3-0.2,3.5,0.1c0.4,0.1,0.6,0.4,0.6,0.9
	c0,0.9,0,1.7,0,2.5c0,0.5,0.1,0.9,0.3,1.3c0.1,0.3,0.4,0.6,0.7,0.6c0.2,0,0.6-0.2,0.8-0.5c0.8-1.1,0.6-2.3,0.1-3.5
	c-0.6-1.4-1.7-2.4-2.7-3.4c-1.3-1.2-2.5-2.4-3.3-3.9c-1.4-2.5-1.1-5.2,0.7-7.5c0.8-1,2-1.5,3.2-1.7c1.6-0.3,3.2-0.3,4.7,0.6
	c1.5,0.9,2.2,2.3,2.4,4c0.1,0.9-0.1,1.8-0.2,2.7c0,0.5-0.4,0.8-0.8,0.8c-1,0-2-0.1-2.9-0.1c-0.4,0-0.6-0.3-0.6-0.8
	c-0.1-1-0.1-1.9-0.2-2.9c-0.1-0.6-0.6-1.1-1.2-1.1c-0.6,0-0.9,0.3-1.1,1c-0.5,1.7,0.3,2.9,1.4,4c1.1,1.1,2.3,2.2,3.4,3.3
	c1.1,1.1,2,2.3,2.4,3.8c1.1,3.6,0.3,7.3-3.9,8.6c-2.3,0.7-4.5,0.4-6.3-1.3C68.4,22.9,68.1,21.2,68.1,19.5z"/>
<path class="st0" d="M58.1,17.2c-0.1-1.7-0.2-3.4-0.2-5c0-1.6,0.1-3.2,0.2-4.8c0.1-1.6,0.2-3.2,0.3-4.9c0-0.7,0.3-1,1-1
	c2.2,0.1,4.4,0.3,6.5,0.5c1,0.1,1.1,0.4,1,1.3c-0.2,1.1-0.4,2.2-0.5,3.3c-0.1,0.5-0.4,0.7-0.8,0.7c-0.7,0-1.4,0-2.1,0
	c-0.4,0-0.7,0.1-0.7,0.6c-0.1,0.9-0.2,1.7-0.3,2.6c0,0.6,0.5,0.7,0.9,0.8c0.8,0.2,1.6,0.4,2.4,0.6c0.5,0.1,0.7,0.4,0.7,0.9
	c-0.1,0.8-0.1,1.6-0.2,2.4c-0.1,0.5-0.4,0.8-1,0.8c-0.8,0-1.5-0.1-2.2-0.1c-0.2,0-0.5,0.2-0.5,0.4c-0.1,1,0,2,0.1,3.1
	c0,0.6,0.2,0.7,0.7,0.6c0.8-0.1,1.2-0.2,2-0.3c0.5-0.1,0.9,0,1,0.6c0.1,1.3,0.3,2.7,0.4,4c0,0.5-0.4,0.6-0.7,0.6c-1,0.1-2,0.3-3,0.4
	c-1.2,0.1-2.3,0.1-3.5,0.2c-0.5,0-0.8-0.2-0.9-0.8C58.4,22.2,58,17.2,58.1,17.2z"/>
<path class="st0" d="M113.7,23.7c0.1,0.7,0.3,1,0.9,1.1c2.5,0.4,3.7,0.5,7.5,0.6c0.9-0.1,1-0.3,0.9-1.3c-0.2-1.2-0.5-2.4-0.7-3.5
	c-0.1-0.5-0.4-0.7-0.8-0.7c-0.8,0-1.6,0-2.4,0c-0.4,0-0.7-0.1-0.7-0.6c-0.1-0.9-0.2-1.8-0.3-2.7c-0.1-0.6,0.1-0.7,0.8-0.9
	c1-0.2,1.1-0.1,2-0.4c0.8-0.2,0.8-0.4,0.7-1c-0.1-0.8-0.1-1.6-0.2-2.5c-0.1-0.6-0.3-0.8-1.1-0.8c-0.9-0.1-1-0.1-1.7-0.1
	c-0.5,0-0.7-0.1-0.7-0.6c0-1-0.1-2-0.2-3c0-0.5,0.2-0.7,0.7-0.7c0.9,0.1,2.1,0.1,3,0.2c0.5,0,0.8-0.1,0.9-0.7
	c0.1-1.4,0.2-2.9,0.3-4.3c0-0.5-0.4-0.6-0.8-0.6c-1,0-2.4-0.1-3.4,0c-1.2,0-2.4,0.1-3.5,0.2c-0.8,0-1,0.2-1,1
	c-0.2,2.5-0.8,7.2-0.6,11.6C113.3,18.5,113.6,22.1,113.7,23.7z"/>
<path class="st0" d="M26.6,2.8c0-1-0.4-1.4-1.4-1.4c-7.1,0-8.8-0.1-16,0c-1.5,0-1.7,0.3-1.6,1.8c0,0.2,0.2,15.5,0.1,16.7
	c-0.1,0.7-0.5,1.2-1.1,1.3c-0.6,0.1-1-0.2-1.2-1c-0.2-0.7-0.4-1.4-0.4-2.1c-0.1-2.1-0.2-4.2-0.2-6.3c0-3,0.2-6.1,0.2-9.1
	c0-0.9-0.2-1.1-1-1.1c-0.8,0-1.7,0.1-2.5,0.2C1,1.6,0.6,2.1,0.5,2.6C0.3,4,0.1,5.3,0.1,6.7C0,10.4-0.1,14.2,0.5,17.9
	c0.3,1.7,0.7,3.4,1.6,4.9c2.1,3.6,6.3,3.9,8.8,0.6c0.9-1.3,1.5-2.7,1.8-4.2c0.2-1.6,0.2-9.4,0-12.7c0.3,0,0.8-0.1,1.8-0.1
	c1.1,0,1.6,0.4,1.6,1.6c0,4.7,0.1,9.5,0.2,14.2c0.1,3.5,0.3,3.5,4,2.8c0.8-0.1,1.1-0.6,1.1-1.5c-0.1-2.6,0-5.2,0-7.8c0,0,0,0,0,0
	c0-2.6,0-5.1,0-7.7c0-1.6,0-1.6,1.7-1.6c0.8,0-0.6,0,0.2,0C26.6,6.4,26.7,6.2,26.6,2.8z"/>
<path class="st0" d="M125.1,22.8c0.3-2.4,1.2-2.6,2.6-2.6c1.5,0,2.7,0.6,2.6,2.6c-0.1,1.5-0.9,2.6-2.6,2.6
	C125.9,25.4,124.9,24.2,125.1,22.8z"/>
</svg>
