<?xml version="1.0" encoding="utf-8"?>
<!-- Generator: Adobe Illustrator 24.1.2, SVG Export Plug-In . SVG Version: 6.00 Build 0)  -->
<svg version="1.1" id="Layer_1" xmlns="http://www.w3.org/2000/svg" xmlns:xlink="http://www.w3.org/1999/xlink" x="0px" y="0px"
	 viewBox="0 0 30.6 24.4" style="enable-background:new 0 0 30.6 24.4;" xml:space="preserve">
<style type="text/css">
	.st0{fill:#003D51;}
</style>
<path class="st0" d="M26.6,1.5c0-1-0.4-1.4-1.4-1.4c-7.1,0-8.8-0.1-16,0C7.8,0,7.7,0.3,7.7,1.8c0,0.2,0.2,15.5,0.1,16.7
	c-0.1,0.7-0.5,1.2-1.1,1.3c-0.6,0.1-1-0.2-1.2-1c-0.2-0.7-0.4-1.4-0.4-2.1c-0.1-2.1-0.2-4.2-0.2-6.3c0-3,0.2-6.1,0.2-9.1
	c0-0.9-0.2-1.1-1-1.1c-0.8,0-1.7,0.1-2.5,0.2c-0.7,0-1,0.5-1.1,1.1C0.3,2.7,0.1,4.1,0.1,5.4C0,9.2-0.1,12.9,0.5,16.6
	C0.7,18.3,1.1,20,2,21.5c2.1,3.6,6.3,3.9,8.8,0.6c0.9-1.3,1.5-2.7,1.8-4.2c0.2-1.6,0.2-9.4,0-12.7c0.3,0,0.8-0.1,1.8-0.1
	C15.5,5,16,5.4,16,6.6c0,4.7,0.1,9.5,0.2,14.2c0.1,3.5,0.3,3.5,4,2.8c0.8-0.1,1.1-0.6,1.1-1.5c-0.1-2.6,0-5.2,0-7.8c0,0,0,0,0,0
	c0-2.6,0-5.1,0-7.7C21.3,5,21.3,5,23,5c0.8,0-0.6,0,0.2,0C26.6,5.1,26.7,4.9,26.6,1.5z"/>
<path class="st0" d="M25.4,21.5c0.3-2.4,1.2-2.6,2.6-2.6s2.7,0.6,2.6,2.6c-0.1,1.5-0.9,2.6-2.6,2.6C26.1,24.1,25.2,22.9,25.4,21.5z"
	/>
</svg>
